<?xml version="1.0" encoding="UTF-8"?>
<svg id="Layer_1" xmlns="http://www.w3.org/2000/svg" version="1.1" viewBox="0 0 808 352">
  <!-- Generator: Adobe Illustrator 29.6.1, SVG Export Plug-In . SVG Version: 2.1.1 Build 9)  -->
  <defs>
    <style>
      .st0 {
        fill: none;
      }

      .st1 {
        fill: #fff;
      }

      .st2 {
        fill: #db3b35;
      }
    </style>
  </defs>
  <rect class="st0" x=".39" y=".44" width="808" height="352"/>
  <g>
    <path class="st1" d="M365.99,87.4h36.26v91.4h85.48v25.36h-121.74v-116.76Z"/>
    <g>
      <polygon class="st0" points="584.46 110.78 557.7 156.99 611.21 156.99 584.46 110.78"/>
      <path class="st1" d="M542.95,182.46h83.01l12.56,21.7h34.79l-67.61-116.76h-42.5l-67.61,116.76h34.79l12.56-21.7ZM584.46,110.78l26.76,46.21h-53.51l26.76-46.21Z"/>
      <polygon class="st1" points="773.44 87.4 773.44 163.74 719.95 87.4 679.08 87.4 679.08 204.16 711.5 204.16 711.5 127.81 764.99 204.16 805.86 204.16 805.86 87.4 773.44 87.4"/>
    </g>
    <g>
      <path class="st1" d="M364.56,244.33c0-14.53,2.81-18.63,16.56-18.63,12.08,0,15.4,3.64,15.4,12.5v.42h-3.83v-.23c0-6.5-1.84-9.09-11.57-9.09-10.84,0-12.68,2.21-12.68,15.04s1.85,15.03,12.68,15.03c9.96,0,11.71-2.26,11.71-9.69v-.23h3.83v.42c0,9.55-2.95,13.1-15.54,13.1-13.75,0-16.56-4.1-16.56-18.63Z"/>
      <path class="st1" d="M404.43,244.33c0-14.53,2.68-18.63,17.02-18.63s17.06,4.1,17.06,18.63-2.67,18.63-17.06,18.63-17.02-4.1-17.02-18.63ZM421.45,259.37c11.53,0,13.19-2.21,13.19-15.03s-1.66-15.04-13.19-15.04-13.14,2.21-13.14,15.04,1.66,15.03,13.14,15.03Z"/>
      <path class="st1" d="M447.57,226.39h5.67l22.6,32.05h.09v-32.05h3.69v35.88h-5.67l-22.6-32.05h-.09v32.05h-3.69v-35.88Z"/>
      <path class="st1" d="M490.67,259.83c-1.61-1.66-2.3-3.97-2.3-8.44v-.83h3.83v.64c0,3.41.42,4.98,1.52,6.09,1.52,1.52,4.2,2.08,9.92,2.08s8.58-.65,10.05-2.08c1.01-.97,1.43-2.44,1.43-4.57,0-2.63-.42-3.97-1.2-4.84-1.25-1.38-3.55-1.8-11.3-2.17-7.19-.42-10.15-1.2-11.9-3.04-1.38-1.52-1.94-3.83-1.94-6.96s.64-5.35,2.17-6.87c2.17-2.12,5.81-3.04,12.27-3.04s10.42.87,12.45,2.91c1.52,1.57,2.08,3.83,2.08,7.79v.51h-3.78v-.32c0-3.09-.32-4.48-1.34-5.44-1.43-1.38-3.96-1.94-9.36-1.94s-7.93.51-9.32,1.89c-.88.92-1.34,2.35-1.34,4.38,0,2.17.28,3.51,1.15,4.43,1.25,1.29,3.41,1.8,10.29,2.17,7.33.37,11.07.92,13.01,3,1.47,1.52,1.94,3.96,1.94,7.42s-.74,5.58-2.26,7.1c-2.31,2.26-6.04,3.18-13.01,3.18-7.33,0-10.88-.92-13.05-3.04Z"/>
      <path class="st1" d="M537.78,229.94h-13.23v-3.55h30.3v3.55h-13.24v32.33h-3.83v-32.33Z"/>
      <path class="st1" d="M561.97,226.39h16.1c10.15,0,13.42,2.58,13.42,10.19,0,5.35-1.61,7.89-5.67,8.95v.14c4.24.6,5.63,3,5.63,8.21v8.39h-3.87v-7.19c0-6.32-1.34-7.52-8.49-7.52h-13.23v14.71h-3.87v-35.88ZM579.08,244.06c6.69,0,8.58-1.66,8.58-7.15s-1.98-6.96-9.87-6.96h-11.94v14.11h13.23Z"/>
      <path class="st1" d="M600.73,250.42v-24.03h3.87v23.29c0,6.87,1.34,9.59,11.85,9.59s11.9-2.72,11.9-9.59v-23.29h3.87v24.03c0,8.49-2.86,12.45-15.77,12.45s-15.73-3.97-15.73-12.45Z"/>
      <path class="st1" d="M641.06,244.33c0-14.53,2.81-18.63,16.56-18.63,12.08,0,15.4,3.64,15.4,12.5v.42h-3.83v-.23c0-6.5-1.84-9.09-11.57-9.09-10.84,0-12.68,2.21-12.68,15.04s1.85,15.03,12.68,15.03c9.96,0,11.71-2.26,11.71-9.69v-.23h3.83v.42c0,9.55-2.95,13.1-15.54,13.1-13.75,0-16.56-4.1-16.56-18.63Z"/>
      <path class="st1" d="M692.23,229.94h-13.23v-3.55h30.3v3.55h-13.24v32.33h-3.83v-32.33Z"/>
      <path class="st1" d="M716.42,226.39h3.87v35.88h-3.87v-35.88Z"/>
      <path class="st1" d="M729.36,244.33c0-14.53,2.68-18.63,17.02-18.63s17.06,4.1,17.06,18.63-2.67,18.63-17.06,18.63-17.02-4.1-17.02-18.63ZM746.38,259.37c11.53,0,13.19-2.21,13.19-15.03s-1.66-15.04-13.19-15.04-13.14,2.21-13.14,15.04,1.66,15.03,13.14,15.03Z"/>
      <path class="st1" d="M772.5,226.39h5.67l22.6,32.05h.09v-32.05h3.69v35.88h-5.67l-22.6-32.05h-.09v32.05h-3.69v-35.88Z"/>
    </g>
    <path class="st2" d="M153.74,1.42L2.23,88.28l.54,174.65,150.98,87.79,150.98-87.79.54-174.65L153.74,1.42ZM23.94,238.33l-.39-125.48,49.15,28.38.21,68.52-48.97,28.58ZM213.54,141.38l-.18,56.53L34.18,94.45l48.87-28.02,65.44,37.58-.03.06,65.08,37.3ZM94.16,210.28l-.17-56.76,178.94,103.31-48.89,28.43-129.88-74.98ZM234.58,210.15l.21-68.81,49.15-28.68-.39,125.77-48.98-28.28ZM273.15,94.36l-49.01,28.6L104.41,54.19l49.34-28.28,119.4,68.45ZM34.48,256.79l48.59-28.35,65.33,37.99.12-.21,54.34,31.37-49.12,28.56-119.27-69.35Z"/>
  </g>
</svg>