<?xml version="1.0" encoding="UTF-8"?>
<svg id="Layer_1" xmlns="http://www.w3.org/2000/svg" version="1.1" viewBox="0 0 890 384">
  <!-- Generator: Adobe Illustrator 29.6.1, SVG Export Plug-In . SVG Version: 2.1.1 Build 9)  -->
  <defs>
    <style>
      .st0 {
        fill: none;
      }

      .st1 {
        fill: #222f3d;
      }

      .st2 {
        fill: #db3b35;
      }
    </style>
  </defs>
  <rect class="st0" width="890" height="384"/>
  <g>
    <path class="st2" d="M166.05,1.45L1.72,95.65l.58,189.41,163.75,95.21,163.74-95.21.58-189.41L166.05,1.45ZM25.27,258.38l-.41-136.07,53.3,30.77.23,74.31-53.11,30.99ZM230.89,153.24l-.19,61.3L36.38,102.35l53-30.38,70.97,40.76-.03.06,70.57,40.46ZM101.43,227.96l-.19-61.54,194.05,112.04-53.01,30.83-140.85-81.32ZM253.71,227.83l.23-74.62,53.3-31.1-.42,136.38-53.11-30.66ZM295.53,102.24l-53.14,31.01L112.54,58.69l53.51-30.67,129.49,74.23ZM36.71,278.4l52.69-30.75,70.86,41.2.14-.23,58.92,34.02-53.26,30.97-129.34-75.2Z"/>
    <g>
      <path class="st1" d="M412.71,267.14c0-15.3,3.16-19.63,17.73-19.63,12.44,0,16.47,3.59,16.47,13.26v.68h-5.34v-.39c0-6.27-1.9-8.6-11.13-8.6-10.54,0-12.24,1.94-12.24,14.67s1.7,14.67,12.24,14.67c9.43,0,11.23-2.14,11.23-9.23v-.34h5.39v.68c0,10.11-3.45,13.85-16.62,13.85-14.58,0-17.73-4.32-17.73-19.63Z"/>
      <path class="st1" d="M455.34,267.14c0-15.3,3.07-19.63,18.17-19.63s18.27,4.32,18.27,19.63-3.11,19.63-18.27,19.63-18.17-4.32-18.17-19.63ZM473.52,281.81c11.27,0,12.78-1.94,12.78-14.67s-1.51-14.67-12.78-14.67-12.68,1.94-12.68,14.67,1.51,14.67,12.68,14.67Z"/>
      <path class="st1" d="M501.38,248.24h7.82l21.52,32.45h.05v-32.45h5.1v37.8h-7.82l-21.48-32.45h-.04v32.45h-5.15v-37.8Z"/>
      <path class="st1" d="M547.71,283.36c-1.75-1.7-2.47-4.28-2.47-8.7v-.92h5.34v.78c0,2.92.34,4.32,1.36,5.34,1.51,1.46,4.13,1.89,9.62,1.89s8.36-.53,9.77-1.89c.92-.87,1.31-2.28,1.31-4.13,0-2.33-.39-3.59-1.12-4.42-1.36-1.41-3.74-1.7-11.56-2.09-7.15-.39-10.35-1.26-12.2-3.2-1.45-1.6-2.14-3.99-2.14-7.58,0-3.35.63-5.83,2.38-7.48,2.33-2.33,6.32-3.26,13.12-3.26,7.19,0,11.18.82,13.36,3.06,1.7,1.7,2.24,4.23,2.24,8.26v.58h-5.25v-.49c0-2.57-.29-3.93-1.26-4.81-1.36-1.36-3.89-1.85-9.04-1.85s-7.67.49-8.99,1.8c-.82.83-1.22,2.14-1.22,3.99,0,1.99.24,3.2,1.07,4.03,1.26,1.31,3.5,1.65,10.35,2.04,7.39.39,11.47.92,13.56,3.16,1.56,1.6,2.04,4.23,2.04,8.01s-.78,6.03-2.38,7.68c-2.47,2.43-6.6,3.4-13.94,3.4-7.97,0-11.66-.87-13.95-3.21Z"/>
      <path class="st1" d="M597.77,253.14h-13.56v-4.91h32.5v4.91h-13.56v32.89h-5.39v-32.89Z"/>
      <path class="st1" d="M624.47,248.24h17.49c10.73,0,14.28,2.87,14.28,10.78,0,5.49-1.7,8.16-5.88,9.38v.2c4.37.63,5.88,3.06,5.88,8.6v8.84h-5.39v-7.39c0-6.22-1.36-7.39-8.36-7.39h-12.63v14.77h-5.39v-37.8ZM642.49,266.36c6.51,0,8.41-1.6,8.41-6.75s-1.94-6.46-9.43-6.46h-11.61v13.22h12.63Z"/>
      <path class="st1" d="M666.13,273.6v-25.36h5.39v24.34c0,6.61,1.36,9.04,11.42,9.04s11.51-2.43,11.51-9.04v-24.34h5.39v25.36c0,8.89-3.3,12.97-16.9,12.97s-16.81-4.08-16.81-12.97Z"/>
      <path class="st1" d="M709.2,267.14c0-15.3,3.16-19.63,17.73-19.63,12.44,0,16.47,3.59,16.47,13.26v.68h-5.34v-.39c0-6.27-1.9-8.6-11.13-8.6-10.54,0-12.24,1.94-12.24,14.67s1.7,14.67,12.24,14.67c9.43,0,11.23-2.14,11.23-9.23v-.34h5.39v.68c0,10.11-3.45,13.85-16.62,13.85-14.58,0-17.73-4.32-17.73-19.63Z"/>
      <path class="st1" d="M763.54,253.14h-13.56v-4.91h32.5v4.91h-13.56v32.89h-5.39v-32.89Z"/>
      <path class="st1" d="M790.24,248.24h5.39v37.8h-5.39v-37.8Z"/>
      <path class="st1" d="M805.22,267.14c0-15.3,3.06-19.63,18.17-19.63s18.27,4.32,18.27,19.63-3.11,19.63-18.27,19.63-18.17-4.32-18.17-19.63ZM823.39,281.81c11.28,0,12.78-1.94,12.78-14.67s-1.5-14.67-12.78-14.67-12.68,1.94-12.68,14.67,1.5,14.67,12.68,14.67Z"/>
      <path class="st1" d="M851.26,248.24h7.82l21.53,32.45h.05v-32.45h5.1v37.8h-7.82l-21.47-32.45h-.05v32.45h-5.15v-37.8Z"/>
    </g>
    <g>
      <path class="st1" d="M606.07,97.42h42.27l67.85,125.99h-38.38l-11.66-22.51h-80l-11.66,22.51h-36.27l67.85-125.99ZM652.06,173.7l-25.91-49.88-25.91,49.88h51.82Z"/>
      <path class="st1" d="M725.15,97.42h47.77l79.67,95.38h.32v-95.38h32.23v125.99h-46.96l-80.32-96.03h-.33v96.03h-32.39v-125.99Z"/>
      <path class="st1" d="M412.35,97.42h32.87v98.62h84.11v27.37h-116.99v-125.99Z"/>
    </g>
  </g>
</svg>