<?xml version="1.0" encoding="UTF-8"?>
<svg id="Layer_1" xmlns="http://www.w3.org/2000/svg" version="1.1" viewBox="0 0 512 640">
  <!-- Generator: Adobe Illustrator 29.6.1, SVG Export Plug-In . SVG Version: 2.1.1 Build 9)  -->
  <defs>
    <style>
      .st0 {
        fill: #fff;
      }

      .st1 {
        fill: #db3b35;
      }
    </style>
  </defs>
  <path class="st1" d="M256,4.97L104.53,91.8l.54,174.59,150.93,87.76,150.94-87.76.54-174.59L256,4.97ZM126.24,241.8l-.39-125.42,49.13,28.36.21,68.5-48.95,28.56ZM315.77,144.89l-.18,56.5-179.12-103.42,48.85-28,65.42,37.57-.03.06,65.06,37.29ZM196.44,213.76l-.17-56.73,178.87,103.27-48.87,28.41-129.83-74.96ZM336.81,213.63l.21-68.78,49.13-28.67-.39,125.71-48.96-28.26ZM375.36,97.88l-48.99,28.58-119.69-68.73,49.32-28.27,119.36,68.42ZM136.78,260.25l48.57-28.34,65.31,37.98.13-.22,54.31,31.36-49.1,28.55-119.22-69.32Z"/>
  <g>
    <path class="st0" d="M19.98,611.77c0-15.3,3.16-19.63,17.73-19.63,12.44,0,16.47,3.59,16.47,13.26v.68h-5.34v-.39c0-6.27-1.9-8.6-11.13-8.6-10.54,0-12.24,1.94-12.24,14.67s1.7,14.67,12.24,14.67c9.43,0,11.22-2.14,11.22-9.23v-.34h5.39v.68c0,10.11-3.45,13.85-16.62,13.85-14.58,0-17.73-4.32-17.73-19.63Z"/>
    <path class="st0" d="M62.61,611.77c0-15.3,3.06-19.63,18.17-19.63s18.27,4.32,18.27,19.63-3.11,19.63-18.27,19.63-18.17-4.32-18.17-19.63ZM80.78,626.44c11.27,0,12.78-1.94,12.78-14.67s-1.51-14.67-12.78-14.67-12.68,1.94-12.68,14.67,1.51,14.67,12.68,14.67Z"/>
    <path class="st0" d="M108.64,592.87h7.82l21.52,32.45h.05v-32.45h5.1v37.8h-7.82l-21.47-32.45h-.05v32.45h-5.15v-37.8Z"/>
    <path class="st0" d="M154.97,627.99c-1.75-1.7-2.48-4.28-2.48-8.7v-.92h5.34v.78c0,2.92.34,4.32,1.36,5.34,1.51,1.46,4.13,1.89,9.62,1.89s8.36-.53,9.77-1.89c.92-.87,1.31-2.28,1.31-4.13,0-2.33-.39-3.59-1.12-4.42-1.36-1.41-3.74-1.7-11.56-2.09-7.14-.39-10.35-1.26-12.2-3.2-1.46-1.6-2.14-3.99-2.14-7.58,0-3.35.63-5.83,2.38-7.48,2.33-2.33,6.31-3.26,13.12-3.26,7.19,0,11.18.82,13.36,3.06,1.7,1.7,2.24,4.23,2.24,8.26v.58h-5.25v-.49c0-2.57-.29-3.93-1.26-4.81-1.36-1.36-3.89-1.85-9.04-1.85s-7.68.49-8.99,1.8c-.83.83-1.22,2.14-1.22,3.99,0,1.99.24,3.2,1.07,4.03,1.26,1.31,3.5,1.65,10.35,2.04,7.39.39,11.47.92,13.56,3.16,1.55,1.6,2.04,4.23,2.04,8.01s-.78,6.03-2.38,7.68c-2.48,2.43-6.61,3.4-13.94,3.4-7.97,0-11.66-.87-13.94-3.21Z"/>
    <path class="st0" d="M205.04,597.77h-13.56v-4.91h32.5v4.91h-13.56v32.89h-5.39v-32.89Z"/>
    <path class="st0" d="M231.73,592.87h17.49c10.74,0,14.28,2.87,14.28,10.78,0,5.49-1.7,8.16-5.88,9.38v.2c4.37.63,5.88,3.06,5.88,8.6v8.84h-5.39v-7.39c0-6.22-1.36-7.39-8.36-7.39h-12.63v14.77h-5.39v-37.8ZM249.76,610.99c6.51,0,8.41-1.6,8.41-6.75s-1.95-6.46-9.43-6.46h-11.61v13.22h12.63Z"/>
    <path class="st0" d="M273.4,618.23v-25.36h5.39v24.34c0,6.61,1.36,9.04,11.42,9.04s11.51-2.43,11.51-9.04v-24.34h5.39v25.36c0,8.89-3.3,12.97-16.91,12.97s-16.81-4.08-16.81-12.97Z"/>
    <path class="st0" d="M316.46,611.77c0-15.3,3.16-19.63,17.73-19.63,12.44,0,16.47,3.59,16.47,13.26v.68h-5.34v-.39c0-6.27-1.9-8.6-11.13-8.6-10.54,0-12.24,1.94-12.24,14.67s1.7,14.67,12.24,14.67c9.43,0,11.22-2.14,11.22-9.23v-.34h5.39v.68c0,10.11-3.45,13.85-16.62,13.85-14.58,0-17.73-4.32-17.73-19.63Z"/>
    <path class="st0" d="M370.81,597.77h-13.56v-4.91h32.5v4.91h-13.56v32.89h-5.39v-32.89Z"/>
    <path class="st0" d="M397.5,592.87h5.39v37.8h-5.39v-37.8Z"/>
    <path class="st0" d="M412.48,611.77c0-15.3,3.06-19.63,18.17-19.63s18.27,4.32,18.27,19.63-3.11,19.63-18.27,19.63-18.17-4.32-18.17-19.63ZM430.65,626.44c11.27,0,12.78-1.94,12.78-14.67s-1.51-14.67-12.78-14.67-12.68,1.94-12.68,14.67,1.51,14.67,12.68,14.67Z"/>
    <path class="st0" d="M458.52,592.87h7.82l21.52,32.45h.05v-32.45h5.1v37.8h-7.82l-21.47-32.45h-.05v32.45h-5.15v-37.8Z"/>
  </g>
  <g>
    <path class="st0" d="M213.33,442.05h42.27l67.85,125.99h-38.38l-11.66-22.51h-80l-11.66,22.51h-36.27l67.85-125.99ZM259.33,518.33l-25.91-49.88-25.91,49.88h51.82Z"/>
    <path class="st0" d="M332.42,442.05h47.77l79.67,95.38h.32v-95.38h32.23v125.99h-46.96l-80.32-96.03h-.33v96.03h-32.39v-125.99Z"/>
    <path class="st0" d="M19.61,442.05h32.87v98.62h84.11v27.37H19.61v-125.99Z"/>
  </g>
</svg>